<svg width="717" height="217" viewBox="0 0 717 217" fill="none" xmlns="http://www.w3.org/2000/svg">
<rect width="716.71" height="216.71" transform="translate(0.291016)" fill="black"/>
<path d="M135.866 110.795L138.452 106.145L134.608 99.2407L132.021 103.891L127.625 111.782L120.558 124.463L115.3 115.023L90.8757 71.1998H105.01L122.367 102.341L126.763 94.4498L113.802 71.1998L109.872 64.1543H78.6211L82.5505 71.1998L111.13 122.491L116.388 131.932L120.247 138.836L124.403 131.368L131.47 118.686L135.866 110.795Z" fill="white"/>
<path d="M134.338 80.8521L139.582 90.3212L143.427 97.2398L145.928 101.763L150.395 93.7452L147.865 89.2643L143.992 82.4021L138.706 73.0175L137.674 71.1998H150.239L148.119 75.0043L151.964 81.9089L157.929 71.1998L161.858 64.1543H143.639H142.07H125.08L128.981 71.1998L134.338 80.8521Z" fill="white"/>
<path d="M164.291 118.404L159.711 126.633L161.817 130.452L166.439 138.78L171.09 130.438L204.108 71.1998L208.037 64.1543H176.15L172.22 71.1998L159.118 94.7316L155.061 102.003V102.017L150.552 110.091V110.105L145.605 118.968L143.019 123.618L138.623 131.509L131.556 144.191L130.609 145.882L127.428 151.589L126.637 152.927H128.093H185.888L189.818 145.882H139.089L154.778 117.728L159.316 109.569L163.358 102.341L180.701 71.1998H194.836L166.425 122.181L164.291 118.404Z" fill="white"/>
<path d="M343.845 106.235L340.9 98.3105L339.91 95.6688L336.966 87.7438L332.054 74.5354L328.119 63.9688H314.713L312.889 68.8559L316.392 71.4313L320.328 74.5354L321.436 77.5205L321.614 77.9587L321.748 78.3527L325.24 87.7438L328.184 95.6688L329.175 98.3105H314.322L315.312 95.6688L317.254 90.4515L308.251 81.3245L305.867 87.7438L302.922 95.6688L301.945 98.3105L298.988 106.235L298.011 108.877L294.076 119.444H306.466L310.401 108.877L311.378 106.235H332.119L333.096 108.877L337.031 119.444H348.756L344.822 108.877L343.845 106.235Z" fill="white"/>
<path d="M477.435 63.9688H465.709V119.444H502.188V108.877H477.435V63.9688Z" fill="white"/>
<path d="M524.337 63.9688H512.611V119.444H524.337V63.9688Z" fill="white"/>
<path d="M453.986 63.9688H413.598V74.5354H453.986V63.9688Z" fill="white"/>
<path d="M425.323 95.6692H451.38V87.7441H413.598V119.444H453.986V108.878H425.323V95.6692Z" fill="white"/>
<path d="M280.734 63.9688L278.31 74.5354L275.288 87.7438L273.477 95.6688L271.94 102.405L270.389 95.6688L268.578 87.7438L265.556 74.5354L263.145 63.9688H252.019L249.609 74.5354L246.586 87.7438L244.775 95.6688L243.225 102.405L241.688 95.6688L239.877 87.7438L236.854 74.5354L234.431 63.9688H221.09L223.787 74.5354L227.148 87.7438L229.167 95.6688L232.529 108.877L235.213 119.444H249.752L252.176 108.877L255.198 95.6688L257.009 87.7438L257.582 85.221L258.156 87.7438L259.966 95.6688L262.989 108.877L265.412 119.444H279.952L282.636 108.877L285.997 95.6688L288.017 87.7438L291.378 74.5354L294.075 63.9688H280.734Z" fill="white"/>
<path d="M571.241 101.256L567.841 95.6688L563.02 87.7438L554.995 74.5354L549.093 64.8405L548.572 63.9688H537.367V119.444H549.093V82.5661L552.272 87.7438L557.131 95.6688L565.235 108.877L571.241 118.665L571.723 119.444H582.966V63.9688H571.241V101.256Z" fill="white"/>
<path d="M637.683 63.9688H597.295V74.5354H637.683V63.9688Z" fill="white"/>
<path d="M609.02 95.6692H635.077V87.7441H597.295V119.444H637.683V108.878H609.02V95.6692Z" fill="white"/>
<path d="M390.744 97.6897C392.36 97.2406 393.871 96.5538 395.252 95.6688C396.32 94.982 397.324 94.1763 398.21 93.2781C399.76 91.7063 401.011 89.8307 401.871 87.7438C402.704 85.7097 403.173 83.4775 403.173 81.1396C403.173 78.8017 402.704 76.5695 401.871 74.5354C399.317 68.3275 393.285 63.9688 386.236 63.9688H358.877V119.444H370.602V98.3105H378.654L385.39 108.877L392.138 119.444H404.633L397.884 108.877L390.744 97.6897ZM388.047 86.9381C387.761 87.2287 387.435 87.506 387.096 87.7438C386.471 88.1929 385.781 88.5363 385.038 88.7476C384.386 88.959 383.696 89.0646 382.979 89.0646H370.602V74.5354H382.979C386.94 74.5354 390.145 77.7847 390.145 81.8C390.145 83.8077 389.337 85.6305 388.047 86.9381Z" fill="white"/>
<path d="M637.686 127.369H235.109V128.69H637.686V127.369Z" fill="white"/>
<path d="M237.328 148.621V139.304H234.001V137.407H242.912V139.304H239.592V148.621H237.328Z" fill="white"/>
<path d="M270.11 148.621V137.407H278.425V139.304H272.375V141.79H278.005V143.68H272.375V146.732H278.639V148.621H270.11Z" fill="white"/>
<path d="M312.594 144.498L314.789 145.194C314.453 146.418 313.892 147.328 313.107 147.925C312.326 148.517 311.335 148.812 310.131 148.812C308.642 148.812 307.418 148.305 306.459 147.29C305.501 146.27 305.021 144.878 305.021 143.114C305.021 141.247 305.503 139.799 306.467 138.769C307.431 137.734 308.698 137.216 310.269 137.216C311.64 137.216 312.755 137.621 313.611 138.432C314.121 138.912 314.504 139.6 314.759 140.498L312.518 141.033C312.385 140.452 312.107 139.993 311.684 139.656C311.266 139.32 310.756 139.151 310.154 139.151C309.323 139.151 308.647 139.45 308.127 140.046C307.612 140.643 307.354 141.609 307.354 142.945C307.354 144.363 307.609 145.373 308.119 145.974C308.629 146.576 309.292 146.877 310.108 146.877C310.71 146.877 311.227 146.686 311.661 146.303C312.094 145.921 312.405 145.319 312.594 144.498Z" fill="white"/>
<path d="M341.239 148.621V137.407H343.503V141.821H347.94V137.407H350.204V148.621H347.94V143.718H343.503V148.621H341.239Z" fill="white"/>
<path d="M377.071 148.621V137.407H379.274L383.863 144.896V137.407H385.967V148.621H383.695L379.174 141.308V148.621H377.071Z" fill="white"/>
<path d="M411.896 143.083C411.896 141.941 412.066 140.982 412.408 140.207C412.663 139.636 413.01 139.123 413.448 138.669C413.892 138.215 414.377 137.879 414.902 137.66C415.6 137.364 416.406 137.216 417.319 137.216C418.971 137.216 420.292 137.728 421.281 138.753C422.276 139.778 422.773 141.204 422.773 143.029C422.773 144.84 422.281 146.257 421.297 147.282C420.312 148.302 418.997 148.812 417.35 148.812C415.682 148.812 414.356 148.305 413.372 147.29C412.388 146.27 411.896 144.868 411.896 143.083ZM414.229 143.006C414.229 144.276 414.522 145.24 415.108 145.898C415.695 146.551 416.439 146.877 417.342 146.877C418.245 146.877 418.984 146.553 419.56 145.906C420.142 145.253 420.432 144.276 420.432 142.976C420.432 141.691 420.149 140.732 419.583 140.1C419.022 139.467 418.275 139.151 417.342 139.151C416.409 139.151 415.657 139.473 415.085 140.115C414.514 140.752 414.229 141.716 414.229 143.006Z" fill="white"/>
<path d="M449.926 148.621V137.499H452.19V146.732H457.82V148.621H449.926Z" fill="white"/>
<path d="M483.523 143.083C483.523 141.941 483.693 140.982 484.035 140.207C484.29 139.636 484.637 139.123 485.075 138.669C485.519 138.215 486.004 137.879 486.529 137.66C487.227 137.364 488.033 137.216 488.946 137.216C490.598 137.216 491.919 137.728 492.908 138.753C493.903 139.778 494.4 141.204 494.4 143.029C494.4 144.84 493.908 146.257 492.924 147.282C491.939 148.302 490.624 148.812 488.977 148.812C487.309 148.812 485.983 148.305 484.999 147.29C484.015 146.27 483.523 144.868 483.523 143.083ZM485.856 143.006C485.856 144.276 486.149 145.24 486.735 145.898C487.322 146.551 488.066 146.877 488.969 146.877C489.872 146.877 490.611 146.553 491.187 145.906C491.769 145.253 492.059 144.276 492.059 142.976C492.059 141.691 491.776 140.732 491.21 140.1C490.649 139.467 489.902 139.151 488.969 139.151C488.036 139.151 487.283 139.473 486.712 140.115C486.141 140.752 485.856 141.716 485.856 143.006Z" fill="white"/>
<path d="M525.015 144.498V142.609H529.895V147.076C529.421 147.535 528.732 147.94 527.83 148.292C526.932 148.639 526.022 148.812 525.099 148.812C523.926 148.812 522.904 148.568 522.032 148.078C521.16 147.583 520.504 146.88 520.066 145.967C519.627 145.049 519.408 144.052 519.408 142.976C519.408 141.808 519.653 140.77 520.142 139.863C520.632 138.955 521.348 138.259 522.292 137.774C523.011 137.402 523.906 137.216 524.977 137.216C526.369 137.216 527.455 137.509 528.235 138.096C529.02 138.677 529.525 139.483 529.75 140.513L527.501 140.934C527.343 140.383 527.044 139.949 526.606 139.633C526.172 139.312 525.629 139.151 524.977 139.151C523.987 139.151 523.199 139.465 522.613 140.092C522.032 140.719 521.741 141.65 521.741 142.884C521.741 144.215 522.037 145.215 522.628 145.883C523.22 146.546 523.995 146.877 524.954 146.877C525.428 146.877 525.902 146.785 526.376 146.602C526.856 146.413 527.266 146.186 527.608 145.921V144.498H525.015Z" fill="white"/>
<path d="M560.106 148.621V137.407H562.37V148.621H560.106Z" fill="white"/>
<path d="M592.446 148.621V137.407H600.761V139.304H594.711V141.79H600.34V143.68H594.711V146.732H600.975V148.621H592.446Z" fill="white"/>
<path d="M627.687 144.972L629.89 144.758C630.023 145.498 630.29 146.041 630.693 146.387C631.101 146.734 631.649 146.908 632.338 146.908C633.067 146.908 633.615 146.755 633.983 146.449C634.355 146.138 634.541 145.776 634.541 145.362C634.541 145.097 634.462 144.873 634.304 144.689C634.151 144.501 633.881 144.337 633.493 144.2C633.228 144.108 632.624 143.945 631.68 143.71C630.466 143.409 629.615 143.04 629.125 142.601C628.437 141.984 628.093 141.232 628.093 140.345C628.093 139.773 628.253 139.24 628.574 138.746C628.901 138.246 629.367 137.866 629.974 137.606C630.586 137.346 631.323 137.216 632.185 137.216C633.592 137.216 634.651 137.524 635.359 138.142C636.073 138.759 636.448 139.582 636.484 140.612L634.22 140.712C634.123 140.135 633.914 139.722 633.592 139.473C633.276 139.218 632.799 139.09 632.162 139.09C631.504 139.09 630.989 139.225 630.617 139.495C630.377 139.669 630.257 139.901 630.257 140.192C630.257 140.457 630.37 140.684 630.594 140.872C630.879 141.112 631.573 141.362 632.674 141.622C633.776 141.882 634.589 142.152 635.115 142.433C635.645 142.708 636.058 143.088 636.354 143.573C636.655 144.052 636.805 144.646 636.805 145.355C636.805 145.997 636.627 146.599 636.27 147.16C635.913 147.721 635.408 148.139 634.755 148.415C634.102 148.685 633.289 148.82 632.315 148.82C630.897 148.82 629.809 148.494 629.049 147.841C628.289 147.183 627.835 146.227 627.687 144.972Z" fill="white"/>
</svg>
