<svg width="717" height="218" viewBox="0 0 717 218" fill="none" xmlns="http://www.w3.org/2000/svg">
<rect width="716.71" height="216.71" transform="translate(0.291016 0.709961)" fill="white"/>
<path d="M135.866 111.505L138.452 106.855L134.608 99.9502L132.021 104.6L127.625 112.491L120.558 125.173L115.3 115.732L90.8757 71.9092H105.01L122.367 103.05L126.763 95.1593L113.802 71.9092L109.872 64.8638H78.6211L82.5505 71.9092L111.13 123.2L116.388 132.641L120.247 139.546L124.403 132.078L131.47 119.396L135.866 111.505Z" fill="black"/>
<path d="M134.338 81.5615L139.582 91.0306L143.427 97.9493L145.928 102.472L150.395 94.4547L147.865 89.9738L143.992 83.1115L138.706 73.727L137.674 71.9092H150.239L148.119 75.7138L151.964 82.6183L157.929 71.9092L161.858 64.8638H143.639H142.07H125.08L128.981 71.9092L134.338 81.5615Z" fill="black"/>
<path d="M164.291 119.114L159.711 127.343L161.817 131.162L166.439 139.489L171.09 131.148L204.108 71.9092L208.037 64.8638H176.15L172.22 71.9092L159.118 95.4411L155.061 102.712V102.726L150.552 110.8V110.814L145.605 119.677L143.019 124.328L138.623 132.218L131.556 144.9L130.609 146.591L127.428 152.298L126.637 153.637H128.093H185.888L189.818 146.591H139.089L154.778 118.437L159.316 110.279L163.358 103.05L180.701 71.9092H194.836L166.425 122.89L164.291 119.114Z" fill="black"/>
<path d="M343.845 106.945L340.9 99.02L339.91 96.3783L336.966 88.4533L332.054 75.2449L328.119 64.6782H314.713L312.889 69.5653L316.392 72.1408L320.328 75.2449L321.436 78.23L321.614 78.6682L321.748 79.0621L325.24 88.4533L328.184 96.3783L329.175 99.02H314.322L315.312 96.3783L317.254 91.161L308.251 82.034L305.867 88.4533L302.922 96.3783L301.945 99.02L298.988 106.945L298.011 109.587L294.076 120.153H306.466L310.401 109.587L311.378 106.945H332.119L333.096 109.587L337.031 120.153H348.756L344.822 109.587L343.845 106.945Z" fill="black"/>
<path d="M477.435 64.6782H465.709V120.153H502.188V109.587H477.435V64.6782Z" fill="black"/>
<path d="M524.337 64.6782H512.611V120.153H524.337V64.6782Z" fill="black"/>
<path d="M453.986 64.6782H413.598V75.2449H453.986V64.6782Z" fill="black"/>
<path d="M425.323 96.3786H451.38V88.4536H413.598V120.154H453.986V109.587H425.323V96.3786Z" fill="black"/>
<path d="M280.734 64.6782L278.31 75.2449L275.288 88.4533L273.477 96.3783L271.94 103.115L270.389 96.3783L268.578 88.4533L265.556 75.2449L263.145 64.6782H252.019L249.609 75.2449L246.586 88.4533L244.775 96.3783L243.225 103.115L241.688 96.3783L239.877 88.4533L236.854 75.2449L234.431 64.6782H221.09L223.787 75.2449L227.148 88.4533L229.167 96.3783L232.529 109.587L235.213 120.153H249.752L252.176 109.587L255.198 96.3783L257.009 88.4533L257.582 85.9305L258.156 88.4533L259.966 96.3783L262.989 109.587L265.412 120.153H279.952L282.636 109.587L285.997 96.3783L288.017 88.4533L291.378 75.2449L294.075 64.6782H280.734Z" fill="black"/>
<path d="M571.241 101.965L567.841 96.3783L563.02 88.4533L554.995 75.2449L549.093 65.55L548.572 64.6782H537.367V120.153H549.093V83.2756L552.272 88.4533L557.131 96.3783L565.235 109.587L571.241 119.374L571.723 120.153H582.966V64.6782H571.241V101.965Z" fill="black"/>
<path d="M637.683 64.6782H597.295V75.2449H637.683V64.6782Z" fill="black"/>
<path d="M609.02 96.3786H635.077V88.4536H597.295V120.154H637.683V109.587H609.02V96.3786Z" fill="black"/>
<path d="M390.744 98.3992C392.36 97.9501 393.871 97.2632 395.252 96.3783C396.32 95.6914 397.324 94.8857 398.21 93.9876C399.76 92.4158 401.011 90.5402 401.871 88.4533C402.704 86.4192 403.173 84.187 403.173 81.8491C403.173 79.5112 402.704 77.279 401.871 75.2449C399.317 69.037 393.285 64.6782 386.236 64.6782H358.877V120.153H370.602V99.02H378.654L385.39 109.587L392.138 120.153H404.633L397.884 109.587L390.744 98.3992ZM388.047 87.6476C387.761 87.9381 387.435 88.2155 387.096 88.4533C386.471 88.9024 385.781 89.2458 385.038 89.4571C384.386 89.6684 383.696 89.7741 382.979 89.7741H370.602V75.2449H382.979C386.94 75.2449 390.145 78.4942 390.145 82.5095C390.145 84.5172 389.337 86.3399 388.047 87.6476Z" fill="black"/>
<path d="M637.686 128.078H235.109V129.399H637.686V128.078Z" fill="#231F20"/>
<path d="M237.328 149.33V140.013H234.001V138.116H242.912V140.013H239.592V149.33H237.328Z" fill="black"/>
<path d="M270.11 149.33V138.116H278.425V140.013H272.375V142.499H278.005V144.389H272.375V147.441H278.639V149.33H270.11Z" fill="black"/>
<path d="M312.594 145.207L314.789 145.903C314.453 147.127 313.892 148.037 313.107 148.634C312.326 149.226 311.335 149.521 310.131 149.521C308.642 149.521 307.418 149.014 306.459 147.999C305.501 146.979 305.021 145.587 305.021 143.823C305.021 141.956 305.503 140.508 306.467 139.478C307.431 138.443 308.698 137.925 310.269 137.925C311.64 137.925 312.755 138.33 313.611 139.141C314.121 139.621 314.504 140.309 314.759 141.207L312.518 141.742C312.385 141.161 312.107 140.702 311.684 140.365C311.266 140.029 310.756 139.86 310.154 139.86C309.323 139.86 308.647 140.159 308.127 140.755C307.612 141.352 307.354 142.318 307.354 143.654C307.354 145.072 307.609 146.082 308.119 146.683C308.629 147.285 309.292 147.586 310.108 147.586C310.71 147.586 311.227 147.395 311.661 147.012C312.094 146.63 312.405 146.028 312.594 145.207Z" fill="black"/>
<path d="M341.239 149.33V138.116H343.503V142.53H347.94V138.116H350.204V149.33H347.94V144.427H343.503V149.33H341.239Z" fill="black"/>
<path d="M377.071 149.33V138.116H379.274L383.863 145.605V138.116H385.967V149.33H383.695L379.174 142.017V149.33H377.071Z" fill="black"/>
<path d="M411.896 143.792C411.896 142.65 412.066 141.691 412.408 140.916C412.663 140.345 413.01 139.832 413.448 139.378C413.892 138.924 414.377 138.588 414.902 138.369C415.6 138.073 416.406 137.925 417.319 137.925C418.971 137.925 420.292 138.437 421.281 139.462C422.276 140.487 422.773 141.913 422.773 143.738C422.773 145.549 422.281 146.966 421.297 147.991C420.312 149.011 418.997 149.521 417.35 149.521C415.682 149.521 414.356 149.014 413.372 147.999C412.388 146.979 411.896 145.577 411.896 143.792ZM414.229 143.715C414.229 144.985 414.522 145.949 415.108 146.607C415.695 147.26 416.439 147.586 417.342 147.586C418.245 147.586 418.984 147.262 419.56 146.615C420.142 145.962 420.432 144.985 420.432 143.685C420.432 142.4 420.149 141.441 419.583 140.809C419.022 140.176 418.275 139.86 417.342 139.86C416.409 139.86 415.657 140.181 415.085 140.824C414.514 141.461 414.229 142.425 414.229 143.715Z" fill="black"/>
<path d="M449.926 149.33V138.208H452.19V147.441H457.82V149.33H449.926Z" fill="black"/>
<path d="M483.523 143.792C483.523 142.65 483.693 141.691 484.035 140.916C484.29 140.345 484.637 139.832 485.075 139.378C485.519 138.924 486.004 138.588 486.529 138.369C487.227 138.073 488.033 137.925 488.946 137.925C490.598 137.925 491.919 138.437 492.908 139.462C493.903 140.487 494.4 141.913 494.4 143.738C494.4 145.549 493.908 146.966 492.924 147.991C491.939 149.011 490.624 149.521 488.977 149.521C487.309 149.521 485.983 149.014 484.999 147.999C484.015 146.979 483.523 145.577 483.523 143.792ZM485.856 143.715C485.856 144.985 486.149 145.949 486.735 146.607C487.322 147.26 488.066 147.586 488.969 147.586C489.872 147.586 490.611 147.262 491.187 146.615C491.769 145.962 492.059 144.985 492.059 143.685C492.059 142.4 491.776 141.441 491.21 140.809C490.649 140.176 489.902 139.86 488.969 139.86C488.036 139.86 487.283 140.181 486.712 140.824C486.141 141.461 485.856 142.425 485.856 143.715Z" fill="black"/>
<path d="M525.015 145.207V143.318H529.895V147.785C529.421 148.244 528.732 148.649 527.83 149.001C526.932 149.348 526.022 149.521 525.099 149.521C523.926 149.521 522.904 149.277 522.032 148.787C521.16 148.292 520.504 147.589 520.066 146.676C519.627 145.758 519.408 144.761 519.408 143.685C519.408 142.517 519.653 141.479 520.142 140.572C520.632 139.664 521.348 138.968 522.292 138.483C523.011 138.111 523.906 137.925 524.977 137.925C526.369 137.925 527.455 138.218 528.235 138.805C529.02 139.386 529.525 140.192 529.75 141.222L527.501 141.643C527.343 141.092 527.044 140.658 526.606 140.342C526.172 140.021 525.629 139.86 524.977 139.86C523.987 139.86 523.199 140.174 522.613 140.801C522.032 141.428 521.741 142.359 521.741 143.593C521.741 144.924 522.037 145.924 522.628 146.592C523.22 147.255 523.995 147.586 524.954 147.586C525.428 147.586 525.902 147.494 526.376 147.311C526.856 147.122 527.266 146.895 527.608 146.63V145.207H525.015Z" fill="black"/>
<path d="M560.106 149.33V138.116H562.37V149.33H560.106Z" fill="black"/>
<path d="M592.446 149.33V138.116H600.761V140.013H594.711V142.499H600.34V144.389H594.711V147.441H600.975V149.33H592.446Z" fill="black"/>
<path d="M627.687 145.681L629.89 145.467C630.023 146.207 630.29 146.75 630.693 147.096C631.101 147.443 631.649 147.617 632.338 147.617C633.067 147.617 633.615 147.464 633.983 147.158C634.355 146.847 634.541 146.485 634.541 146.071C634.541 145.806 634.462 145.582 634.304 145.398C634.151 145.21 633.881 145.046 633.493 144.909C633.228 144.817 632.624 144.654 631.68 144.419C630.466 144.118 629.615 143.749 629.125 143.31C628.437 142.693 628.093 141.941 628.093 141.054C628.093 140.482 628.253 139.949 628.574 139.455C628.901 138.955 629.367 138.575 629.974 138.315C630.586 138.055 631.323 137.925 632.185 137.925C633.592 137.925 634.651 138.233 635.359 138.851C636.073 139.468 636.448 140.291 636.484 141.321L634.22 141.421C634.123 140.844 633.914 140.431 633.592 140.181C633.276 139.927 632.799 139.799 632.162 139.799C631.504 139.799 630.989 139.934 630.617 140.204C630.377 140.378 630.257 140.61 630.257 140.901C630.257 141.166 630.37 141.393 630.594 141.581C630.879 141.821 631.573 142.071 632.674 142.331C633.776 142.591 634.589 142.861 635.115 143.142C635.645 143.417 636.058 143.797 636.354 144.282C636.655 144.761 636.805 145.355 636.805 146.064C636.805 146.706 636.627 147.308 636.27 147.869C635.913 148.43 635.408 148.848 634.755 149.124C634.102 149.394 633.289 149.529 632.315 149.529C630.897 149.529 629.809 149.203 629.049 148.55C628.289 147.892 627.835 146.936 627.687 145.681Z" fill="black"/>
</svg>
